Coordinates
version=1
nRows=10
nColumns=40
inDegrees=yes

Units are S.I. units (second, meters, Newtons, ...)
If the header above contains a line with 'inDegrees', this indicates whether rotational values are in degrees (yes) or radians (no).

endheader
time	pelvis_tilt	pelvis_list	pelvis_rotation	pelvis_tx	pelvis_ty	pelvis_tz	hip_flexion_r	hip_adduction_r	hip_rotation_r	knee_angle_r	knee_angle_r_beta	ankle_angle_r	subtalar_angle_r	mtp_angle_r	hip_flexion_l	hip_adduction_l	hip_rotation_l	knee_angle_l	knee_angle_l_beta	ankle_angle_l	subtalar_angle_l	mtp_angle_l	lumbar_extension	lumbar_bending	lumbar_rotation	arm_flex_r	arm_add_r	arm_rot_r	elbow_flex_r	pro_sup_r	wrist_flex_r	wrist_dev_r	arm_flex_l	arm_add_l	arm_rot_l	elbow_flex_l	pro_sup_l	wrist_flex_l	wrist_dev_l
      4.72000000	    -32.41782004	     -0.08422497	     -2.90174342	     -0.40885778	      0.61658752	     -0.90453067	     93.25276361	    -10.36574468	     -3.10400234	     96.33374394	      1.68134101	     37.55187181	      0.00000000	      0.00000000	     93.12094513	    -20.73292974	     -0.86825164	     95.70988214	      1.67045257	     36.50271975	      0.00000000	      0.00000000	    -34.93233041	    -16.81283664	    -43.89316453	     34.15456342	    -24.49316830	     89.74649282	     82.74277519	      4.28403882	      0.00000000	      0.00000000	    -73.74022102	    -13.01063041	    -18.64574065	    119.20945792	     88.12468643	      0.00000000	      0.00000000
      4.72500000	    -32.20545612	     -0.09309999	     -2.94034293	     -0.40784760	      0.61807007	     -0.90441820	     92.78398196	    -10.30112269	     -3.14708639	     96.12302937	      1.67766335	     37.84722498	      0.00000000	      0.00000000	     92.64446296	    -20.76640760	     -0.90246225	     95.51673270	      1.66708148	     36.72796786	      0.00000000	      0.00000000	    -35.07658180	    -16.80416032	    -43.84772628	     34.20183436	    -24.40282972	     89.74770559	     82.44792563	      6.89424502	      0.00000000	      0.00000000	    -73.58447024	    -13.42006503	    -18.51953540	    119.06302934	     88.14563853	      0.00000000	      0.00000000
      4.73000000	    -32.13559806	     -0.19106693	     -2.93330566	     -0.40713146	      0.61932175	     -0.90444249	     92.49719763	    -10.22045382	     -3.18637470	     95.94175206	      1.67449946	     37.72606080	      0.00000000	      0.00000000	     92.42056642	    -20.72646420	     -0.81928945	     95.33063729	      1.66383350	     36.57340308	      0.00000000	      0.00000000	    -35.02626115	    -16.65023470	    -43.83827043	     34.30161625	    -24.30113669	     89.74814203	     82.56168350	      4.00021645	      0.00000000	      0.00000000	    -73.52878602	    -13.69538987	    -18.43546884	    119.04614049	     88.12941564	      0.00000000	      0.00000000
      4.73500000	    -31.87471275	     -0.05919460	     -2.96929661	     -0.40598574	      0.62109439	     -0.90460140	     92.02830182	    -10.22677078	     -3.08528288	     95.71950930	      1.67062060	     37.76221808	      0.00000000	      0.00000000	     91.80201798	    -20.70763642	     -1.03267310	     95.12411026	      1.66022892	     36.64015320	      0.00000000	      0.00000000	    -35.12321896	    -16.72252476	    -43.84642594	     34.37175332	    -24.20885102	     89.74803398	     82.42650046	      4.31482174	      0.00000000	      0.00000000	    -73.36451018	    -14.19508056	    -18.26545916	    118.94420452	     88.16932688	      0.00000000	      0.00000000
      4.74000000	    -31.74097153	     -0.00897205	     -2.96439780	     -0.40499514	      0.62283679	     -0.90484143	     91.67397083	    -10.23225711	     -3.01683399	     95.48797540	      1.66657957	     37.70708292	      0.00000000	      0.00000000	     91.37540371	    -20.61087475	     -1.11120642	     94.88629632	      1.65607829	     36.56585932	      0.00000000	      0.00000000	    -35.06367760	    -16.68838115	    -43.94350783	     34.54387561	    -24.10542466	     89.75731920	     82.34973150	      4.27782704	      0.00000000	      0.00000000	    -73.30934602	    -14.33764782	    -18.35698692	    118.89473966	     88.13624520	      0.00000000	      0.00000000
      4.74500000	    -31.32509038	      0.06313178	     -2.89604884	     -0.40342507	      0.62526814	     -0.90508596	     90.93016772	    -10.34622318	     -2.98791824	     95.23863751	      1.66222780	     37.75567261	      0.00000000	      0.00000000	     90.51482719	    -20.50217108	     -1.33643465	     94.56617538	      1.65049112	     36.64189112	      0.00000000	      0.00000000	    -35.32223172	    -16.65761359	    -44.12223908	     34.62439407	    -23.92558265	     89.75031243	     82.07979380	      4.15028476	      0.00000000	      0.00000000	    -73.15032244	    -14.70396022	    -18.35070360	    118.76971045	     88.10482048	      0.00000000	      0.00000000
      4.75000000	    -31.29057962	     -0.00722536	     -2.90492411	     -0.40237754	      0.62687487	     -0.90518521	     90.64100290	    -10.30242071	     -3.02682105	     95.02436938	      1.65848812	     37.71555392	      0.00000000	      0.00000000	     90.25381089	    -20.47573409	     -1.30212055	     94.35124017	      1.64673979	     36.59845123	      0.00000000	      0.00000000	    -35.06261219	    -16.54185981	    -44.14084824	     34.73298214	    -23.85508285	     89.75819014	     82.03732004	      4.13316862	      0.00000000	      0.00000000	    -73.13579679	    -14.72916668	    -18.40233302	    118.75200742	     88.09838557	      0.00000000	      0.00000000
      4.75500000	    -31.15375187	     -0.10067794	     -2.96645032	     -0.40116795	      0.62936153	     -0.90513788	     90.08157482	    -10.19691934	     -3.17487633	     94.56252303	      1.65042738	     37.64626132	      0.00000000	      0.00000000	     89.78474810	    -20.50506504	     -1.27469465	     93.93805523	      1.63952836	     36.51613781	      0.00000000	      0.00000000	    -34.92034333	    -16.40586016	    -44.20147221	     34.93818318	    -23.69837945	     89.76358078	     81.94933226	      4.10357786	      0.00000000	      0.00000000	    -73.06925278	    -14.89104366	    -18.51738651	    118.63885234	     88.08874536	      0.00000000	      0.00000000
      4.76000000	    -30.86692875	     -0.10462682	     -2.96939509	     -0.39948603	      0.63222485	     -0.90524155	     89.36200394	    -10.21491175	     -3.26155414	     94.13135927	      1.64290215	     37.61320040	      0.00000000	      0.00000000	     89.03588847	    -20.46188596	     -1.38979920	     93.51862647	      1.63220794	     36.44779473	      0.00000000	      0.00000000	    -34.87797739	    -16.35002844	    -44.28672115	     35.02741934	    -23.50501512	     89.76016486	     81.65954707	      4.05850855	      0.00000000	      0.00000000	    -72.95331523	    -15.07694634	    -18.63397796	    118.51331609	     88.08608352	      0.00000000	      0.00000000
      4.76500000	    -30.28279741	     -0.17790539	     -3.06746626	     -0.39706426	      0.63552264	     -0.90485907	     88.25919407	    -10.11268090	     -3.42947138	     93.79488933	      1.63702964	     37.77455949	      0.00000000	      0.00000000	     87.94581002	    -20.62458198	     -1.52181132	     93.19693756	      1.62659341	     36.60445572	      0.00000000	      0.00000000	    -35.02197782	    -16.29253685	    -44.26986791	     35.08707508	    -23.24582318	     89.75389028	     81.24192377	      4.00002239	      0.00000000	      0.00000000	    -72.86566949	    -15.26412341	    -18.69028356	    118.35009628	     88.09385572	      0.00000000	      0.00000000
